HIERARCHY
ROOT joint_0
{
	OFFSET 0.000000 0.000000 0.000000
	CHANNELS 6 Xposition Yposition Zposition Zrotation Yrotation Xrotation 
	JOINT joint_1
	{
		OFFSET 6.579712 -2.778931 100.531982
		CHANNELS 3 Zrotation Yrotation Xrotation
		JOINT joint_2
		{
			OFFSET -3.313232 -1.302856 91.974976
			CHANNELS 3 Zrotation Yrotation Xrotation
			JOINT joint_3
			{
				OFFSET -3.421509 -1.641846 91.864014
				CHANNELS 3 Zrotation Yrotation Xrotation
				JOINT joint_4
				{
					OFFSET 7.697388 -4.642578 123.278931
					CHANNELS 3 Zrotation Yrotation Xrotation
					JOINT joint_5
					{
						OFFSET 24.842529 -5.941528 79.695068
						CHANNELS 3 Zrotation Yrotation Xrotation
						End Site
						{
							OFFSET 0.000000 0.000000 0.000000
						}
					}
				}
				JOINT joint_6
				{
					OFFSET -0.159668 -29.112976 68.364014
					CHANNELS 3 Zrotation Yrotation Xrotation
					JOINT joint_7
					{
						OFFSET -18.356079 -115.987061 -20.069092
						CHANNELS 3 Zrotation Yrotation Xrotation
						JOINT joint_8
						{
							OFFSET 31.719482 -11.733276 -267.170898
							CHANNELS 3 Zrotation Yrotation Xrotation
							JOINT joint_9
							{
								OFFSET 29.329956 -5.879517 -234.654053
								CHANNELS 3 Zrotation Yrotation Xrotation
								End Site
								{
									OFFSET 0.000000 0.000000 0.000000
								}
							}
						}
					}
				}
				JOINT joint_10
				{
					OFFSET 8.802979 23.897949 69.798950
					CHANNELS 3 Zrotation Yrotation Xrotation
					JOINT joint_11
					{
						OFFSET 21.159058 115.524292 -19.981934
						CHANNELS 3 Zrotation Yrotation Xrotation
						JOINT joint_12
						{
							OFFSET 18.809204 5.403442 -268.593018
							CHANNELS 3 Zrotation Yrotation Xrotation
							JOINT joint_13
							{
								OFFSET 20.807861 0.421265 -235.639038
								CHANNELS 3 Zrotation Yrotation Xrotation
								End Site
								{
									OFFSET 0.000000 0.000000 0.000000
								}
							}
						}
					}
				}
			}
		}
	}
	JOINT joint_14
	{
		OFFSET -9.713379 -79.513916 -99.348022
		CHANNELS 3 Zrotation Yrotation Xrotation
		JOINT joint_15
		{
			OFFSET -40.607788 -6.518372 -502.938019
			CHANNELS 3 Zrotation Yrotation Xrotation
			JOINT joint_16
			{
				OFFSET -19.807617 -7.437378 -399.590012
				CHANNELS 3 Zrotation Yrotation Xrotation
				JOINT joint_17
				{
					OFFSET 171.701660 -44.751282 -77.782000
					CHANNELS 3 Zrotation Yrotation Xrotation
					End Site
					{
						OFFSET 0.000000 0.000000 0.000000
					}
				}
			}
		}
	}
	JOINT joint_18
	{
		OFFSET 17.854858 79.618652 -98.128052
		CHANNELS 3 Zrotation Yrotation Xrotation
		JOINT joint_19
		{
			OFFSET -24.848877 16.861816 -503.722992
			CHANNELS 3 Zrotation Yrotation Xrotation
			JOINT joint_20
			{
				OFFSET -30.162476 14.470093 -398.750008
				CHANNELS 3 Zrotation Yrotation Xrotation
				JOINT joint_21
				{
					OFFSET 176.096680 -10.987549 -80.021000
					CHANNELS 3 Zrotation Yrotation Xrotation
					End Site
					{
						OFFSET 0.000000 0.000000 0.000000
					}
				}
			}
		}
	}
}
MOTION
Frames: 9
Frame Time: 0.016667
-979.833862 873.699280 1099.244019 28.236615 -0.901209 0.095427 0.937518 -0.975326 -0.703713 0.992430 0.130557 0.207647 0.972751 -0.287113 -0.141283 -0.337141 1.934425 1.329396 0.000000 0.000000 0.000000 -3.533943 7.597157 -3.535162 -5.206827 6.251587 5.897610 -4.607425 -49.873124 -3.035384 0.000000 0.000000 0.000000 -0.900874 3.480224 3.786592 -10.879578 3.909893 -1.927916 -9.994405 -61.105498 4.573319 0.000000 0.000000 0.000000 -0.527762 -0.592540 -1.340855 -0.706112 3.057630 0.757431 -0.419879 -1.328562 -0.536464 0.000000 0.000000 0.000000 3.205928 -1.825677 1.071037 3.375545 3.676287 1.440416 3.381801 0.141443 1.543264 0.000000 0.000000 0.000000 
-979.949585 873.541016 1099.171021 28.164320 -1.007019 0.083953 0.928002 -0.996801 -0.711388 0.984855 0.126028 0.212279 0.965545 -0.281378 -0.142911 -0.338389 2.084823 1.342861 0.000000 0.000000 0.000000 -3.662328 7.360930 -3.660654 -5.361705 5.991984 5.571005 -4.710427 -51.649025 -2.791103 0.000000 0.000000 0.000000 -0.953808 3.029064 3.760078 -10.731596 3.411649 -1.623447 -10.043805 -62.672873 4.449107 0.000000 0.000000 0.000000 -0.515777 -0.529020 -1.328269 -0.695816 3.136590 0.761379 -0.401996 -1.374806 -0.540391 0.000000 0.000000 0.000000 3.231375 -1.820204 1.017314 3.397553 3.916935 1.604644 3.428565 0.043205 1.557576 0.000000 0.000000 0.000000 
-979.986938 873.422974 1099.090942 28.041182 -1.109379 0.073971 0.924674 -1.029721 -0.723239 0.984060 0.117755 0.216827 0.965295 -0.274605 -0.142635 -0.339882 2.248628 1.358876 0.000000 0.000000 0.000000 -3.758756 7.041888 -3.765976 -5.499906 5.672653 5.134604 -4.780279 -53.044773 -2.520509 0.000000 0.000000 0.000000 -1.020634 2.564509 3.741425 -10.501134 2.908627 -1.347484 -10.036720 -63.882172 4.206561 0.000000 0.000000 0.000000 -0.484649 -0.444589 -1.323185 -0.667428 3.161462 0.775781 -0.370712 -1.400221 -0.532820 0.000000 0.000000 0.000000 3.271956 -1.767272 0.993189 3.435295 4.082624 1.705795 3.480912 -0.060895 1.574216 0.000000 0.000000 0.000000 
-979.964050 873.305725 1099.026978 27.889522 -1.206832 0.064796 0.928344 -1.080700 -0.739339 0.991332 0.115555 0.222929 0.972719 -0.273017 -0.144973 -0.341612 2.401734 1.375079 0.000000 0.000000 0.000000 -3.835491 6.741062 -3.845726 -5.623934 5.367161 4.737751 -4.834894 -54.325719 -2.254668 0.000000 0.000000 0.000000 -1.070413 2.137532 3.717208 -10.295634 2.464362 -1.156148 -10.029461 -64.990902 4.049501 0.000000 0.000000 0.000000 -0.441553 -0.363366 -1.320229 -0.627416 3.180881 0.795042 -0.328465 -1.417602 -0.518199 0.000000 0.000000 0.000000 3.320013 -1.697470 0.986656 3.481270 4.209086 1.775208 3.537181 -0.140753 1.594274 0.000000 0.000000 0.000000 
-979.868591 873.167419 1098.990967 27.701151 -1.301828 0.058620 0.941532 -1.160205 -0.765823 1.010150 0.129560 0.231366 0.990808 -0.288747 -0.149916 -0.342334 2.536344 1.388022 0.000000 0.000000 0.000000 -3.888904 6.487532 -3.907107 -5.720035 5.093141 4.437109 -4.874596 -55.496991 -2.038859 0.000000 0.000000 0.000000 -1.102956 1.771860 3.688226 -10.148026 2.108506 -1.077249 -10.033026 -66.024474 4.056829 0.000000 0.000000 0.000000 -0.381334 -0.287796 -1.318893 -0.570461 3.202940 0.816733 -0.269708 -1.424282 -0.493325 0.000000 0.000000 0.000000 3.377068 -1.608655 1.000564 3.537287 4.292231 1.807530 3.598618 -0.175109 1.619732 0.000000 0.000000 0.000000 
-979.712341 873.029114 1098.969971 27.483497 -1.392597 0.053332 0.961962 -1.257073 -0.796036 1.037552 0.150336 0.241553 1.017050 -0.310864 -0.157265 -0.342891 2.659394 1.400546 0.000000 0.000000 0.000000 -3.924366 6.264071 -3.961099 -5.796678 4.838927 4.194773 -4.899497 -56.580023 -1.828112 0.000000 0.000000 0.000000 -1.119082 1.444780 3.677508 -10.043621 1.822159 -1.106012 -10.045074 -66.986171 4.160535 0.000000 0.000000 0.000000 -0.308879 -0.214737 -1.319488 -0.501596 3.219663 0.843102 -0.199693 -1.423481 -0.461412 0.000000 0.000000 0.000000 3.441928 -1.501913 1.032182 3.601901 4.336036 1.807949 3.663549 -0.186447 1.648372 0.000000 0.000000 0.000000 
-979.552551 872.904541 1098.949951 27.284197 -1.476373 0.042987 0.979536 -1.335896 -0.814809 1.060902 0.164783 0.246009 1.039806 -0.327174 -0.159908 -0.343889 2.779926 1.413121 0.000000 0.000000 0.000000 -3.955355 6.106248 -4.019062 -5.883609 4.628402 4.020937 -4.925176 -57.850970 -1.515926 0.000000 0.000000 0.000000 -1.077597 1.131277 3.701798 -10.014071 1.591359 -1.255962 -10.103106 -68.075452 4.341015 0.000000 0.000000 0.000000 -0.246076 -0.154307 -1.317785 -0.442452 3.254734 0.873180 -0.136873 -1.437123 -0.436525 0.000000 0.000000 0.000000 3.501592 -1.407495 1.059857 3.660986 4.386614 1.824678 3.725496 -0.206204 1.675030 0.000000 0.000000 0.000000 
-979.367004 872.812561 1098.922974 27.123833 -1.553357 0.026809 0.988925 -1.384765 -0.816386 1.073727 0.165003 0.240464 1.053032 -0.333292 -0.155870 -0.345237 2.905526 1.425393 0.000000 0.000000 0.000000 -3.978649 6.057427 -4.078189 -5.989585 4.495580 3.937785 -4.960577 -59.417690 -1.069897 0.000000 0.000000 0.000000 -0.967497 0.841790 3.778976 -10.096189 1.442653 -1.576027 -10.226305 -69.365286 4.632822 0.000000 0.000000 0.000000 -0.202338 -0.100984 -1.314647 -0.402612 3.308304 0.907681 -0.090111 -1.475740 -0.425419 0.000000 0.000000 0.000000 3.551815 -1.323820 1.078860 3.709357 4.441498 1.865541 3.780320 -0.239510 1.697468 0.000000 0.000000 0.000000 
-979.177979 872.734314 1098.896973 26.981817 -1.623075 0.005000 0.995641 -1.416096 -0.806639 1.082467 0.158704 0.229501 1.062712 -0.332522 -0.147490 -0.346725 3.027277 1.436843 0.000000 0.000000 0.000000 -3.998263 6.078279 -4.146206 -6.103694 4.399802 3.925264 -4.996727 -61.172253 -0.518519 0.000000 0.000000 0.000000 -0.800389 0.556071 3.896670 -10.266294 1.352056 -2.026892 -10.401609 -70.785995 5.005762 0.000000 0.000000 0.000000 -0.168098 -0.060652 -1.308403 -0.372264 3.380367 0.945103 -0.050317 -1.528847 -0.421247 0.000000 0.000000 0.000000 3.597245 -1.252857 1.094531 3.752622 4.503018 1.922293 3.832622 -0.281620 1.718102 0.000000 0.000000 0.000000 
